{"title":"Godzilla 2014 R6 HDSCR XVID-SPEED24","uid":10679533,"size":1072031589,"categoryP":"video","categoryS":"movies","magnet":"?xt=urn:btih:293520714cb515d6960ae8f92a01e3556d832b0a&amp;dn=Godzilla+2014+R6+HDSCR+XVID-SPEED24&amp;tr=udp%3A%2F%2Ftracker.openbittorrent.com%3A80&amp;tr=udp%3A%2F%2Fopen.demonii.com%3A1337&amp;tr=udp%3A%2F%2Ftracker.coppersurfer.tk%3A6969&amp;tr=udp%3A%2F%2Fexodus.desync.com%3A6969","seeders":7,"leechers":1,"uploader":"HeroMaster","files":-1,"time":1407013063,"description":":::::::::::: SPEED24 PRESENTS :::::::::::\n\n &lt;a href=&quot;\nhttp://i.imgur.com/fL5qpJK.gif&quot; rel=&quot;nofollow&quot; target=&quot;_NEW&quot;&gt;\nhttp://i.imgur.com/fL5qpJK.gif&lt;/a&gt;\n\n\n:::: Godzilla 2014 R6 HDSCR XVID ::::\n\n\n::Information::\n\n\nGeneral\nFormat                                   : AVI\nFormat/Info                              : Audio Video Interleave\nFile size                                : 1 013 MiB\nDuration                                 : 1h 58mn\nOverall bit rate                         : 1 200 Kbps\nlanguage                                 : english\nsubs                                     : hc chinese subs\nsource                                   : SHD thanxs\n\n\nVideo\nID                                       : 0\nFormat                                   : MPEG-4 Visual\nFormat profile                           : Advanced Simple@L4\nFormat settings, BVOP                    : 2\nFormat settings, QPel                    : No\nFormat settings, GMC                     : No warppoints\nFormat settings, Matrix                  : Default (H.263)\nCodec ID                                 : DIVX\nCodec ID/Info                            : Project Mayo\nCodec ID/Hint                            : DivX 4\nDuration                                 : 1h 58mn\nBit rate                                 : 805 Kbps\nWidth                                    : 1 280 pixels\nHeight                                   : 546 pixels\nDisplay aspect ratio                     : 2.35:1\nFrame rate                               : 25.000 fps\nColor space                              : YUV\nChroma subsampling                       : 4:2:0\nBit depth                                : 8 bits\nScan type                                : Progressive\nCompression mode                         : Lossy\nBits/(Pixel*Frame)                       : 0.046\nStream size                              : 679 MiB (67%)\nWriting library                          : XviD 64\n\n\nAudio\nID                                       : 1\nFormat                                   : AC-3\nFormat/Info                              : Audio Coding 3\nMode extension                           : CM (complete main)\nFormat settings, Endianness              : Big\nCodec ID                                 : 2000\nDuration                                 : 1h 58mn\nBit rate mode                            : Constant\nBit rate                                 : 384 Kbps\nChannel(s)                               : 2 channels\nChannel positions                        : Front: L R\nSampling rate                            : 44.1 KHz\nBit depth                                : 16 bits\nStream size                              : 324 MiB (32%)\nAlignment                                : Aligned on interleaves\nInterleave, duration                     : 35 ms (0.87 video frame)\n\n\nvideo : worked on video sharpened it up filtered colour,brightness\naudio : good audio but was out of sync just re synced to video\n\n\n::IMDB::\n\n &lt;a href=&quot;\nhttp://www.imdb.com/title/tt0831387/&quot; rel=&quot;nofollow&quot; target=&quot;_NEW&quot;&gt;\nhttp://www.imdb.com/title/tt0831387/&lt;/a&gt;\n\n\n::Greetz and Respect::\n\n\nALL CREDIT Goes to SPEED24 for Encoding and Special friend for Distribution.\n\n\n::Poster::\n\n &lt;a href=&quot;\nhttp://i.imgur.com/hKpsaz7.jpg&quot; rel=&quot;nofollow&quot; target=&quot;_NEW&quot;&gt;\nhttp://i.imgur.com/hKpsaz7.jpg&lt;/a&gt;\n\n\n::Screenshots::\n\n &lt;a href=&quot;\nhttp://i.imgur.com/7741zUw.jpg&quot; rel=&quot;nofollow&quot; target=&quot;_NEW&quot;&gt;\nhttp://i.imgur.com/7741zUw.jpg&lt;/a&gt;\n\n &lt;a href=&quot;\nhttp://i.imgur.com/OhGe1ws.jpg&quot; rel=&quot;nofollow&quot; target=&quot;_NEW&quot;&gt;\nhttp://i.imgur.com/OhGe1ws.jpg&lt;/a&gt;\n\n &lt;a href=&quot;\nhttp://i.imgur.com/JS3NhX5.jpg&quot; rel=&quot;nofollow&quot; target=&quot;_NEW&quot;&gt;\nhttp://i.imgur.com/JS3NhX5.jpg&lt;/a&gt;\n\n\nSEED AND ENJOY!","torrent":{"xt":"urn:btih:293520714cb515d6960ae8f92a01e3556d832b0a","amp;dn":"Godzilla+2014+R6+HDSCR+XVID-SPEED24","amp;tr":["udp%3A%2F%2Ftracker.openbittorrent.com%3A80","udp%3A%2F%2Fopen.demonii.com%3A1337","udp%3A%2F%2Ftracker.coppersurfer.tk%3A6969","udp%3A%2F%2Fexodus.desync.com%3A6969"],"infoHash":"293520714cb515d6960ae8f92a01e3556d832b0a","infoHashBuffer":{"type":"Buffer","data":[41,53,32,113,76,181,21,214,150,10,232,249,42,1,227,85,109,131,43,10]},"announce":[],"urlList":[]}}